<svg width="696" height="215" viewBox="0 0 696 215" fill="none" xmlns="http://www.w3.org/2000/svg">
<g clip-path="url(#clip0_1574_24970)">
<path d="M172.673 165.384C165.418 165.384 158.613 164.411 152.376 162.477C148.237 161.194 144.438 159.092 141.39 156.4C137.998 153.403 135.654 149.747 134.613 145.825C133.053 139.942 134.196 133.129 138.111 124.995C138.767 123.631 139.449 122.246 140.109 120.904C144.494 111.992 149.028 102.777 149.626 92.8359C149.927 87.8313 148.991 83.2733 146.845 79.2886C144.508 74.9504 140.799 71.2565 135.506 67.9952C127.452 63.0323 119.169 60.1078 110.186 59.0531C102.231 58.1196 93.9395 58.6858 84.8381 60.7867C67.8639 64.7033 51.4055 73.2015 35.4882 81.4187C31.5462 83.4542 27.9207 85.5287 24.4137 87.535C17.1809 91.6728 10.3496 95.581 2.70677 97.9268C1.60239 98.2649 0.432469 97.6471 0.0922308 96.5452C-0.248008 95.4432 0.372509 94.2759 1.47689 93.9364C8.6735 91.7284 15.0028 88.1068 22.3318 83.9133C25.8765 81.8848 29.5424 79.7881 33.5639 77.7108C49.7099 69.374 66.4067 60.7547 83.8927 56.7199C104.096 52.0576 121.697 54.5842 137.701 64.4445C143.638 68.1023 147.834 72.3125 150.528 77.3143C153.048 81.9919 154.148 87.2984 153.799 93.0877C153.151 103.865 148.428 113.464 143.861 122.745C143.206 124.078 142.528 125.456 141.88 126.802C138.415 134.004 137.36 139.877 138.654 144.757C140.594 152.065 147.654 156.645 153.614 158.493C161.015 160.788 169.311 161.636 178.273 161.014C186.391 160.45 194.797 158.655 202.583 155.824C203.669 155.429 204.868 155.987 205.265 157.071C205.661 158.153 205.101 159.351 204.015 159.746C195.866 162.71 187.065 164.588 178.563 165.178C176.572 165.314 174.605 165.384 172.673 165.384Z" fill="#3D4451"/>
<path d="M170.549 175.494C164.958 175.494 159.364 174.981 153.866 173.941C145.959 172.447 138.65 168.739 133.285 163.5C127.276 157.63 124.085 150.288 124.06 142.268C124.034 133.611 127.182 125.333 130.265 118.376C131.064 116.574 131.95 114.761 132.888 112.843C136.825 104.793 140.895 96.4669 138.795 88.5224C137.412 83.291 133.113 78.5299 126.998 75.4579C114.225 69.0411 99.8821 68.0727 83.1505 72.4985C68.3389 76.4165 53.5692 84.0451 40.5398 90.775L39.3712 91.3788C27.0557 97.7372 15.4235 103.742 3.96689 107.492C2.86948 107.851 1.68701 107.254 1.32725 106.159C0.967488 105.064 1.56569 103.884 2.6631 103.525C13.8003 99.8812 25.2876 93.95 37.4483 87.6723L38.6155 87.0699C51.836 80.2412 66.8218 72.5013 82.0768 68.4664C99.8417 63.7679 115.151 64.8365 128.878 71.7333C136.062 75.3424 141.15 81.076 142.839 87.4622C145.336 96.9079 140.719 106.348 136.646 114.678C135.726 116.562 134.856 118.34 134.089 120.069C131.183 126.624 128.215 134.386 128.24 142.26C128.261 149.137 131.017 155.452 136.208 160.522C140.99 165.193 147.535 168.503 154.641 169.845C171.791 173.086 189.92 170.968 205.687 163.882C206.739 163.409 207.978 163.877 208.453 164.928C208.927 165.979 208.459 167.214 207.405 167.689C195.923 172.844 183.245 175.494 170.549 175.494Z" fill="#3D4451"/>
<path d="M695.345 140.182C687.278 138.891 679.8 136.49 671.097 132.392C667.683 130.785 664.69 128.606 662.44 126.091C659.783 123.119 658.222 119.801 657.803 116.228C656.845 108.09 661.301 101.726 666.02 94.9877C671.33 87.4036 674.717 80.1645 676.085 73.4736C676.873 69.6224 677.015 65.8506 676.507 62.2623C675.956 58.3694 674.623 54.5614 672.543 50.9425C666.858 41.0558 655.68 33.5343 641.877 30.305C628.845 27.2566 614.036 27.1787 600.177 30.0838C587.324 32.7788 574.815 37.4898 562.716 42.0464C561.543 42.4874 560.372 42.9285 559.2 43.3682C555.085 44.9111 550.912 46.66 546.876 48.3519C538.844 51.7189 530.538 55.2 521.984 57.3788L520.962 53.3815C529.219 51.2792 537.382 47.858 545.276 44.5494C549.347 42.8422 553.557 41.078 557.746 39.5072C558.916 39.069 560.086 38.6279 561.256 38.1869C573.501 33.576 586.163 28.8065 599.326 26.0476C613.764 23.02 629.21 23.1063 642.819 26.2896C657.734 29.7777 669.875 38.0157 676.128 48.8903C680.632 56.7235 681.98 65.2718 680.136 74.2987C678.634 81.6477 675.124 89.1872 669.41 97.3502C664.787 103.952 661.135 109.167 661.911 115.746C662.23 118.461 663.447 121.018 665.528 123.344C667.41 125.449 669.947 127.289 672.862 128.661C681.198 132.584 688.333 134.881 696 136.107L695.345 140.182Z" fill="#3D4451"/>
<path d="M694.152 150.518C685.126 148.85 673.891 146.776 664.652 141.998C659.585 139.378 655.69 136.266 652.744 132.485C649.391 128.183 647.37 123.024 646.732 117.15C646.131 111.603 647.01 106.221 649.419 100.699C651.483 95.9687 654.296 91.9005 657.016 87.9686C659.664 84.1397 662.164 80.5236 663.695 76.749C666.935 68.7642 667.08 60.8294 664.096 54.9831C661.226 49.3607 655.657 45.7753 651.491 43.7579C639.971 38.1787 627.152 36.3421 612.305 38.1425C600.892 39.5269 588.744 42.9147 572.916 49.1284C562.165 53.3483 551.286 57.7963 540.765 62.0983C535.775 64.138 530.616 66.2472 525.536 68.3064L523.962 64.4399C529.036 62.3835 534.193 60.2757 539.178 58.2374C549.713 53.9299 560.606 49.4762 571.385 45.2452C587.556 38.8966 600.022 35.4294 611.801 34.0005C619.159 33.1087 626.202 33.0836 632.735 33.9268C640 34.8645 646.925 36.9098 653.318 40.0055C658.061 42.3026 664.427 46.4362 667.824 53.0909C671.359 60.0169 671.269 69.2108 667.575 78.317C665.871 82.5174 663.244 86.3171 660.462 90.3408C657.854 94.1099 655.16 98.0084 653.257 102.369C651.146 107.209 650.372 111.898 650.893 116.705C651.935 126.314 657.065 133.376 666.578 138.294C675.266 142.787 686.161 144.799 694.915 146.417L694.152 150.518Z" fill="#3D4451"/>
<path d="M227.751 159.962L230.629 168.225C232.088 172.412 236.518 174.681 240.524 173.291L258.516 167.051L255.101 157.724C255.103 157.724 236.3 169.244 227.751 159.962Z" fill="#C7DDEB"/>
<path d="M255.533 155.957L257.094 160.658C259.781 168.758 268.228 173.042 275.961 170.228L314.581 156.167L308.33 137.324L255.533 155.957Z" fill="#C7DDEB"/>
<path d="M211.421 157.311L223.059 153.274L227.959 167.342L216.321 171.378C212.516 172.697 208.36 170.69 207.037 166.894L206.925 166.574C205.605 162.777 207.617 158.63 211.421 157.311Z" fill="#C7DDEB"/>
<path d="M268.614 173.445C266.407 173.445 264.21 172.947 262.165 171.959C258.601 170.237 255.921 167.233 254.621 163.501L242.24 127.959C240.94 124.226 241.174 120.212 242.899 116.655C244.626 113.099 247.636 110.425 251.376 109.128L286.095 97.0879L308.21 160.578L273.49 172.617C271.899 173.17 270.254 173.445 268.614 173.445ZM283.196 103.068L252.924 113.565C250.371 114.45 248.317 116.274 247.138 118.702C245.96 121.129 245.801 123.868 246.688 126.416L259.068 161.958C259.955 164.506 261.783 166.555 264.216 167.731C266.648 168.905 269.393 169.065 271.947 168.18L302.217 157.683L283.196 103.068Z" fill="#3D4451"/>
<path d="M238.114 176.047C233.903 176.047 229.909 173.315 228.406 168.996L218.301 139.983C217.396 137.384 217.516 134.598 218.64 132.14C219.78 129.642 221.813 127.781 224.365 126.896L242.357 120.657L243.904 125.096L225.912 131.336C224.588 131.795 223.527 132.773 222.925 134.09C222.306 135.446 222.243 136.99 222.749 138.442L232.854 167.456C233.885 170.412 236.979 172.036 239.751 171.073L257.743 164.833L259.29 169.271L241.298 175.51C240.246 175.873 239.174 176.047 238.114 176.047Z" fill="#3D4451"/>
<path d="M309.753 163.969C308.711 163.969 307.675 163.734 306.71 163.268C305.028 162.455 303.764 161.038 303.15 159.278L282.935 101.241C282.322 99.4799 282.432 97.5864 283.246 95.9084C284.06 94.2305 285.481 92.9685 287.247 92.3578L288.509 91.9195C292.152 90.6562 296.147 92.5859 297.413 96.2215L317.628 154.259C318.242 156.021 318.132 157.914 317.317 159.592C316.503 161.27 315.082 162.532 313.318 163.143L312.055 163.581C311.303 163.84 310.526 163.969 309.753 163.969ZM289.822 95.6858L288.56 96.1241C287.803 96.387 287.195 96.9269 286.846 97.6462C286.498 98.3655 286.45 99.1766 286.713 99.9321L306.927 157.968C307.191 158.723 307.732 159.331 308.453 159.678C309.174 160.026 309.987 160.074 310.744 159.812L312.007 159.374C312.763 159.111 313.372 158.571 313.721 157.852C314.07 157.132 314.117 156.321 313.855 155.566L293.637 97.5293C293.095 95.971 291.382 95.1446 289.822 95.6858Z" fill="#3D4451"/>
<path d="M237.205 136.767C237.865 136.539 238.584 136.887 238.814 137.545L245.895 157.875C246.124 158.533 245.775 159.251 245.116 159.481C244.456 159.709 243.737 159.361 243.506 158.703L236.426 138.373C236.197 137.715 236.546 136.995 237.205 136.767Z" fill="#3D4451"/>
<path d="M231.234 138.838C231.893 138.609 232.613 138.957 232.843 139.615L239.924 159.945C240.153 160.603 239.804 161.321 239.144 161.551C238.485 161.779 237.765 161.431 237.535 160.773L230.454 140.443C230.226 139.785 230.576 139.066 231.234 138.838Z" fill="#3D4451"/>
<path d="M212.107 168.637C210.599 168.637 209.099 168.296 207.702 167.621C205.267 166.446 203.438 164.394 202.549 161.843L202.421 161.477C200.587 156.214 203.387 150.444 208.663 148.615L223.673 143.408L230.45 162.864L215.438 168.072C214.35 168.451 213.226 168.637 212.107 168.637ZM209.241 150.28L209.821 151.944C208.158 152.521 206.818 153.711 206.051 155.293C205.282 156.875 205.179 158.661 205.757 160.321L205.885 160.687C206.464 162.348 207.656 163.684 209.241 164.451C210.827 165.217 212.617 165.32 214.281 164.744L225.956 160.695L221.498 147.897L209.823 151.945L209.241 150.28Z" fill="#3D4451"/>
<path d="M520.752 74.9743L504.663 80.3838L500.589 68.3168L516.678 62.9073C520.017 61.7845 523.637 63.5752 524.763 66.9088C525.888 70.2396 524.092 73.8515 520.752 74.9743Z" fill="#C7DDEB"/>
<path d="M505.114 80.4635L480.535 89.2275L482.794 105.882L501.633 98.6189C506.34 96.8046 509.413 89.8717 508.5 83.1335C508.226 81.1258 506.678 79.9056 505.114 80.4635Z" fill="#C7DDEB"/>
<path d="M468.616 97.1022L472.477 108.535C473.443 111.397 476.614 112.913 479.559 111.924L479.65 111.893C482.595 110.903 484.2 107.781 483.234 104.919L479.403 93.5752" fill="#C7DDEB"/>
<path d="M477.158 108.949L425.753 126.543C422.894 127.504 419.983 126.522 419.249 124.349L416.865 117.288C416.131 115.116 417.853 112.575 420.712 111.614L468.757 95.4619" fill="#C7DDEB"/>
<path d="M440.896 88.08L414.461 96.9668L416.078 101.754L442.513 92.8677L440.896 88.08Z" fill="#FDC345"/>
<path d="M484.822 104.767L483.168 99.868L501.285 93.7782C504.449 92.7138 506.155 89.28 505.09 86.1231L493.176 50.8419C492.66 49.3129 491.577 48.0746 490.128 47.3581C488.679 46.6401 487.036 46.5302 485.504 47.045L467.388 53.1348L465.734 48.236L483.85 42.1462C486.695 41.1903 489.742 41.3962 492.43 42.7263C495.119 44.0565 497.128 46.3521 498.086 49.1904L510 84.4716C511.979 90.3305 508.81 96.7014 502.94 98.6756L484.822 104.767Z" fill="#3D4451"/>
<path d="M503.118 78.4331L496.31 58.27L514.317 52.2164C519.888 50.3423 525.948 53.342 527.824 58.9003C529.701 64.4586 526.696 70.5053 521.126 72.3781L503.118 78.4331ZM501.826 60.9998L505.854 72.9276L519.734 68.2611L520.43 70.3203L519.734 68.2611C523.031 67.1536 524.808 63.5765 523.697 60.2875C522.587 56.9984 519.002 55.2244 515.706 56.3333L501.826 60.9998Z" fill="#3D4451"/>
<path d="M422.134 129.53L400.771 66.2626L452.971 48.7139L454.496 53.2329L406.826 69.2582L425.138 123.489L472.808 107.464L474.335 111.983L422.134 129.53Z" fill="#3D4451"/>
<path d="M414.995 103.896L410.71 91.2059L440.351 81.2412L444.636 93.9315L414.995 103.896ZM414.998 93.3277L417.122 99.6178L440.347 91.8097L438.223 85.5195L414.998 93.3277Z" fill="#3D4451"/>
<path d="M383.579 93.7084C381.29 93.7084 379.151 92.267 378.38 89.9852L378.189 89.4203C377.224 86.5625 378.769 83.4557 381.633 82.4929L406.771 74.042L410.462 84.9708L385.325 93.4218C384.746 93.6152 384.157 93.7084 383.579 93.7084ZM404.502 78.6083L382.788 85.9086C382.315 86.0672 381.933 86.4011 381.712 86.8464C381.49 87.293 381.455 87.798 381.615 88.2697L381.806 88.8346C381.965 89.3062 382.3 89.6874 382.746 89.9087C383.194 90.1299 383.7 90.1647 384.173 90.0047L405.887 82.7044L404.502 78.6083Z" fill="#3D4451"/>
<path d="M395.101 127.828C392.812 127.828 390.673 126.387 389.902 124.105L389.711 123.54C388.746 120.684 390.291 117.576 393.154 116.613L418.291 108.162L421.981 119.091L396.844 127.542C396.268 127.737 395.679 127.828 395.101 127.828ZM416.022 112.728L394.309 120.029C393.332 120.357 392.805 121.416 393.134 122.39L393.325 122.955C393.484 123.426 393.819 123.807 394.265 124.029C394.713 124.25 395.219 124.285 395.692 124.125L417.405 116.824L416.022 112.728Z" fill="#3D4451"/>
<path d="M415.586 72.7192C415.087 72.7192 414.623 72.4048 414.454 71.9081C414.243 71.2833 414.579 70.6072 415.204 70.3971L437.777 62.8088C438.402 62.5987 439.081 62.934 439.291 63.5573C439.502 64.182 439.166 64.8582 438.541 65.0683L415.968 72.6566C415.841 72.6983 415.713 72.7192 415.586 72.7192Z" fill="#3D4451"/>
<path d="M477.769 114.189C474.594 114.189 471.627 112.188 470.558 109.025L451.873 53.6875C451.225 51.7675 451.364 49.7097 452.266 47.894C453.169 46.0784 454.726 44.7232 456.65 44.0762L456.741 44.0456C458.665 43.3987 460.728 43.5378 462.546 44.438C464.366 45.3382 465.724 46.8923 466.372 48.8123L485.058 104.149C486.396 108.113 484.253 112.425 480.28 113.761L480.19 113.791C479.388 114.061 478.572 114.189 477.769 114.189ZM459.172 47.5893C458.78 47.5893 458.385 47.6533 458.002 47.7813L457.911 47.812C456.986 48.1222 456.239 48.7747 455.805 49.6457C455.372 50.5181 455.305 51.5059 455.616 52.4284L474.301 107.765C474.944 109.669 477.02 110.696 478.928 110.056L479.018 110.025C480.926 109.384 481.956 107.312 481.314 105.409L462.628 50.0715C462.317 49.149 461.663 48.4033 460.79 47.9706C460.279 47.7173 459.727 47.5893 459.172 47.5893Z" fill="#3D4451"/>
<path d="M442.729 63.6628C442.222 63.6628 441.753 63.34 441.591 62.8335C441.39 62.206 441.736 61.5354 442.365 61.3351L445.851 60.222C446.48 60.0216 447.152 60.3667 447.353 60.9942C447.553 61.6217 447.208 62.2923 446.579 62.4927L443.093 63.6057C442.973 63.6447 442.85 63.6628 442.729 63.6628Z" fill="#3D4451"/>
<path d="M484.382 58.9853C485.043 58.7613 485.762 59.1147 485.986 59.7742L492.926 80.1529C493.151 80.8124 492.796 81.5289 492.135 81.7529C491.475 81.9769 490.756 81.6235 490.532 80.9641L483.592 60.5853C483.367 59.9258 483.722 59.2093 484.382 58.9853Z" fill="#3D4451"/>
<path d="M478.398 61.0146C479.059 60.7906 479.777 61.144 480.001 61.8035L486.941 82.1822C487.166 82.8417 486.812 83.5582 486.151 83.7822C485.49 84.0062 484.772 83.6528 484.547 82.9933L477.607 62.6146C477.382 61.9551 477.737 61.2386 478.398 61.0146Z" fill="#3D4451"/>
<path d="M343.893 43.2716C343.849 43.2716 343.804 43.2702 343.76 43.2674C342.606 43.1951 341.731 42.2031 341.805 41.0524L344.288 1.95483C344.361 0.804205 345.359 -0.0681551 346.508 0.00419373C347.661 0.0765426 348.537 1.06856 348.463 2.21918L345.98 41.3168C345.908 42.4229 344.988 43.2716 343.893 43.2716Z" fill="#3D4451"/>
<path d="M396.993 208.281C396.19 208.281 395.424 207.818 395.079 207.037L380.02 173.061C379.553 172.006 380.031 170.775 381.087 170.308C382.144 169.842 383.378 170.319 383.846 171.372L398.905 205.348C399.372 206.403 398.894 207.634 397.838 208.102C397.563 208.224 397.276 208.281 396.993 208.281Z" fill="#3D4451"/>
<path d="M314.583 51.4787C313.971 51.4787 313.364 51.2116 312.951 50.6996L290.64 23.0122C289.917 22.1135 290.059 20.8 290.96 20.0779C291.861 19.3558 293.177 19.4978 293.901 20.3966L316.211 48.0839C316.935 48.9827 316.793 50.2961 315.892 51.0182C315.506 51.3285 315.043 51.4787 314.583 51.4787Z" fill="#3D4451"/>
<path d="M435.197 167.794C434.874 167.794 434.544 167.719 434.236 167.56L405.759 152.841C404.733 152.311 404.333 151.052 404.864 150.028C405.396 149.004 406.658 148.605 407.684 149.135L436.161 163.854C437.187 164.384 437.587 165.643 437.056 166.667C436.683 167.383 435.954 167.794 435.197 167.794Z" fill="#3D4451"/>
<path d="M349.248 215C349.217 215 349.185 215 349.155 214.999C348 214.947 347.106 213.973 347.158 212.821L348.64 179.359C348.692 178.207 349.668 177.316 350.822 177.366C351.977 177.418 352.871 178.392 352.819 179.544L351.337 213.007C351.287 214.125 350.361 215 349.248 215Z" fill="#3D4451"/>
<path d="M304.218 204.429C303.832 204.429 303.443 204.323 303.093 204.101C302.119 203.48 301.835 202.189 302.457 201.218L319.52 174.592C320.142 173.621 321.436 173.337 322.41 173.958C323.383 174.578 323.667 175.869 323.045 176.84L305.982 203.466C305.583 204.09 304.908 204.429 304.218 204.429Z" fill="#3D4451"/>
<path d="M380.816 52.1749C380.314 52.1749 379.811 51.9955 379.409 51.6323C378.555 50.8574 378.492 49.537 379.27 48.6841L400.326 25.5881C401.102 24.7353 402.426 24.6727 403.281 25.449C404.135 26.224 404.198 27.5443 403.42 28.3972L382.364 51.4932C381.952 51.9454 381.385 52.1749 380.816 52.1749Z" fill="#3D4451"/>
<path d="M252.528 124.662C251.898 124.662 251.326 124.234 251.173 123.595C250.715 121.694 251.255 119.862 252.734 118.298C253.747 117.228 254.85 116.661 254.973 116.599L255.056 116.558L255.144 116.527L279.547 108.179C280.274 107.93 281.068 108.317 281.317 109.044C281.567 109.771 281.179 110.562 280.45 110.811L256.151 119.125C255.706 119.369 253.362 120.775 253.883 122.945C254.063 123.692 253.602 124.444 252.853 124.623C252.746 124.65 252.637 124.662 252.528 124.662Z" fill="#3D4451"/>
<path d="M289.9 74.0182C289.66 74.0182 289.414 73.9765 289.176 73.8888L257.802 62.3408C256.718 61.9415 256.163 60.7422 256.564 59.6611C256.964 58.58 258.166 58.0263 259.249 58.4256L290.623 69.9736C291.707 70.3729 292.262 71.5723 291.862 72.6533C291.551 73.4965 290.75 74.0182 289.9 74.0182Z" fill="#3D4451"/>
</g>
<defs>
<clipPath id="clip0_1574_24970">
<rect width="696" height="215" fill="white"/>
</clipPath>
</defs>
</svg>
